<?xml version="1.0" encoding="utf-8"?>
<svg version="1.1" xmlns:xlink="http://www.w3.org/1999/xlink" width="12px" height="12px" viewBox="641 534  12 12" xmlns="http://www.w3.org/2000/svg">
  <path d="M 647 534  C 650.36 534  653 536.64  653 540  C 653 543.36  650.36 546  647 546  C 643.64 546  641 543.36  641 540  C 641 536.64  643.64 534  647 534  Z " fill-rule="nonzero" fill="#ffffff" stroke="none" />
  <path d="M 647 534.5  C 650.08 534.5  652.5 536.92  652.5 540  C 652.5 543.08  650.08 545.5  647 545.5  C 643.92 545.5  641.5 543.08  641.5 540  C 641.5 536.92  643.92 534.5  647 534.5  Z " stroke-width="1" stroke="#797979" fill="none" />
  <path d="M 647 543  C 645.32 543  644 541.68  644 540  C 644 538.32  645.32 537  647 537  C 648.68 537  650 538.32  650 540  C 650 541.68  648.68 543  647 543  " fill-rule="nonzero" fill="#797979" stroke="none" />
</svg>