<?xml version="1.0" encoding="utf-8"?>
<svg version="1.1" xmlns:xlink="http://www.w3.org/1999/xlink" width="40px" height="40px" xmlns="http://www.w3.org/2000/svg">
  <g transform="matrix(1 0 0 1 -399 -159 )">
    <path d="M 419 159  C 430.2 159  439 167.8  439 179  C 439 190.2  430.2 199  419 199  C 407.8 199  399 190.2  399 179  C 399 167.8  407.8 159  419 159  Z " fill-rule="nonzero" fill="#ffffff" stroke="none" />
    <path d="M 419 159.5  C 429.92 159.5  438.5 168.08  438.5 179  C 438.5 189.92  429.92 198.5  419 198.5  C 408.08 198.5  399.5 189.92  399.5 179  C 399.5 168.08  408.08 159.5  419 159.5  Z " stroke-width="1" stroke="#797979" fill="none" />
  </g>
</svg>