<?xml version="1.0" encoding="utf-8"?>
<svg version="1.1" xmlns:xlink="http://www.w3.org/1999/xlink" width="12px" height="12px" viewBox="783 599  12 12" xmlns="http://www.w3.org/2000/svg">
  <path d="M 789 599  C 792.36 599  795 601.64  795 605  C 795 608.36  792.36 611  789 611  C 785.64 611  783 608.36  783 605  C 783 601.64  785.64 599  789 599  Z " fill-rule="nonzero" fill="#ffffff" stroke="none" />
  <path d="M 789 599.5  C 792.08 599.5  794.5 601.92  794.5 605  C 794.5 608.08  792.08 610.5  789 610.5  C 785.92 610.5  783.5 608.08  783.5 605  C 783.5 601.92  785.92 599.5  789 599.5  Z " stroke-width="1" stroke="#797979" fill="none" />
  <path d="M 789 608  C 787.32 608  786 606.68  786 605  C 786 603.32  787.32 602  789 602  C 790.68 602  792 603.32  792 605  C 792 606.68  790.68 608  789 608  " fill-rule="nonzero" fill="#797979" stroke="none" />
</svg>