<?xml version="1.0" encoding="utf-8"?>
<svg version="1.1" xmlns:xlink="http://www.w3.org/1999/xlink" width="12px" height="12px" viewBox="666 908  12 12" xmlns="http://www.w3.org/2000/svg">
  <path d="M 672 908  C 675.36 908  678 910.64  678 914  C 678 917.36  675.36 920  672 920  C 668.64 920  666 917.36  666 914  C 666 910.64  668.64 908  672 908  Z " fill-rule="nonzero" fill="#ffffff" stroke="none" />
  <path d="M 672 908.5  C 675.08 908.5  677.5 910.92  677.5 914  C 677.5 917.08  675.08 919.5  672 919.5  C 668.92 919.5  666.5 917.08  666.5 914  C 666.5 910.92  668.92 908.5  672 908.5  Z " stroke-width="1" stroke="#797979" fill="none" />
  <path d="M 672 917  C 670.32 917  669 915.68  669 914  C 669 912.32  670.32 911  672 911  C 673.68 911  675 912.32  675 914  C 675 915.68  673.68 917  672 917  " fill-rule="nonzero" fill="#797979" stroke="none" />
</svg>