<?xml version="1.0" encoding="utf-8"?>
<svg version="1.1" xmlns:xlink="http://www.w3.org/1999/xlink" width="27px" height="28px" xmlns="http://www.w3.org/2000/svg">
  <g transform="matrix(1 0 0 1 -366 -265 )">
    <path d="M 8.2125 5.6875  C 8.7375 6.36805555555555  9 7.19444444444444  9 8.16666666666667  C 9 9.13888888888889  8.7375 9.96527777777778  8.2125 10.6458333333333  C 7.6875 11.3263888888889  7.05 11.6666666666667  6.3 11.6666666666667  C 5.55 11.6666666666667  4.9125 11.3263888888889  4.3875 10.6458333333333  C 3.8625 9.96527777777778  3.6 9.13888888888889  3.6 8.16666666666667  C 3.6 7.19444444444444  3.8625 6.36805555555555  4.3875 5.6875  C 4.9125 5.00694444444444  5.55 4.66666666666667  6.3 4.66666666666667  C 7.05 4.66666666666667  7.6875 5.00694444444444  8.2125 5.6875  Z M 17.55 7.58333333333333  L 23.4 15.1666666666667  L 23.4 23  L 3.6 23  L 3.6 19.8333333333333  L 8.1 14  L 10.35 16.9166666666667  L 17.55 7.58333333333333  Z M 25.06640625 2.50651041666667  C 24.97734375 2.39105902777778  24.871875 2.33333333333333  24.75 2.33333333333333  L 2.25 2.33333333333333  C 2.128125 2.33333333333333  2.02265625 2.39105902777778  1.93359375 2.50651041666667  C 1.84453125 2.62196180555555  1.8 2.75868055555555  2 2.91666666666667  L 2 25.0833333333333  C 1.8 25.2413194444444  1.84453125 25.3780381944444  1.93359375 25.4934895833333  C 2.02265625 25.6089409722222  2.128125 25.6666666666667  2.25 25.6666666666667  L 24.75 25.6666666666667  C 24.871875 25.6666666666667  24.97734375 25.6089409722222  25.06640625 25.4934895833333  C 25.15546875 25.3780381944444  25.2 25.2413194444444  25 25.0833333333333  L 25 2.91666666666667  C 25.2 2.75868055555555  25.15546875 2.62196180555555  25.06640625 2.50651041666667  Z M 26.3390625 0.856770833333334  C 26.7796875 1.42795138888889  27 2.11458333333333  27 2.91666666666667  L 27 25.0833333333333  C 27 25.8854166666667  26.7796875 26.5720486111111  26.3390625 27.1432291666667  C 25.8984375 27.7144097222222  25.36875 28  24.75 28  L 2.25 28  C 1.63125 28  1.1015625 27.7144097222222  0.6609375 27.1432291666667  C 0.2203125 26.5720486111111  0 25.8854166666667  0 25.0833333333333  L 0 2.91666666666667  C 0 2.11458333333333  0.2203125 1.42795138888889  0.6609375 0.856770833333334  C 1.1015625 0.285590277777775  1.63125 0  2.25 0  L 24.75 0  C 25.36875 0  25.8984375 0.285590277777775  26.3390625 0.856770833333334  Z " fill-rule="nonzero" fill="#000000" stroke="none" transform="matrix(1 0 0 1 366 265 )" />
  </g>
</svg>