<?xml version="1.0" encoding="utf-8"?>
<svg version="1.1" xmlns:xlink="http://www.w3.org/1999/xlink" width="91px" height="63px" xmlns="http://www.w3.org/2000/svg">
  <g transform="matrix(1 0 0 1 -666 -57 )">
    <path d="M 666 57  L 757 57  L 757 120  L 666 120  L 666 57  " fill-rule="nonzero" fill="#cccccc" stroke="none" />
    <path d="M 670 61  L 753 61  L 753 116  L 670 116  L 670 61  " fill-rule="nonzero" fill="#ffffff" stroke="none" />
    <path d="M 718.045 75.9  C 715.399 75.9  713.32 73.821  713.32 71.175  C 713.32 68.529  715.399 66.45  718.045 66.45  C 720.691 66.45  722.77 68.529  722.77 71.175  C 722.77 73.821  720.691 75.9  718.045 75.9  " fill-rule="nonzero" fill="#cccccc" stroke="none" />
    <path d="M 672 115  L 672 86.4  L 692 73.4  L 720 93.4  L 736 81.2  L 752 93.4  L 752 115  L 672 115  " fill-rule="nonzero" fill="#169bd5" stroke="none" />
  </g>
</svg>