<?xml version="1.0" encoding="utf-8"?>
<svg version="1.1" xmlns:xlink="http://www.w3.org/1999/xlink" width="12px" height="12px" viewBox="641 445  12 12" xmlns="http://www.w3.org/2000/svg">
  <path d="M 647 445  C 650.36 445  653 447.64  653 451  C 653 454.36  650.36 457  647 457  C 643.64 457  641 454.36  641 451  C 641 447.64  643.64 445  647 445  Z " fill-rule="nonzero" fill="#f0f0f0" stroke="none" />
  <path d="M 647 445.5  C 650.08 445.5  652.5 447.92  652.5 451  C 652.5 454.08  650.08 456.5  647 456.5  C 643.92 456.5  641.5 454.08  641.5 451  C 641.5 447.92  643.92 445.5  647 445.5  Z " stroke-width="1" stroke="#797979" fill="none" />
  <path d="M 647 454  C 645.32 454  644 452.68  644 451  C 644 449.32  645.32 448  647 448  C 648.68 448  650 449.32  650 451  C 650 452.68  648.68 454  647 454  " fill-rule="nonzero" fill="#797979" stroke="none" />
</svg>