<?xml version="1.0" encoding="utf-8"?>
<svg version="1.1" xmlns:xlink="http://www.w3.org/1999/xlink" width="150px" height="150px" xmlns="http://www.w3.org/2000/svg">
  <g transform="matrix(1 0 0 1 -628 -477 )">
    <path d="M 703 477  C 745 477  778 510  778 552  C 778 594  745 627  703 627  C 661 627  628 594  628 552  C 628 510  661 477  703 477  Z " fill-rule="nonzero" fill="#ffffff" stroke="none" />
    <path d="M 703 477.5  C 744.72 477.5  777.5 510.28  777.5 552  C 777.5 593.72  744.72 626.5  703 626.5  C 661.28 626.5  628.5 593.72  628.5 552  C 628.5 510.28  661.28 477.5  703 477.5  Z " stroke-width="1" stroke="#797979" fill="none" />
  </g>
</svg>