<?xml version="1.0" encoding="utf-8"?>
<svg version="1.1" xmlns:xlink="http://www.w3.org/1999/xlink" width="35px" height="30px" xmlns="http://www.w3.org/2000/svg">
  <g transform="matrix(1 0 0 1 -746 -720 )">
    <path d="M 32.4934895833333 18.2902644230769  C 32.6089409722222 18.1760817307692  32.6666666666667 18.0408653846154  32 17.8846153846154  L 32 2.88461538461538  C 32.6666666666667 2.72836538461538  32.6089409722222 2.59314903846154  32.4934895833333 2.47896634615385  C 32.3780381944444 2.36478365384615  32.2413194444444 2.30769230769231  32.0833333333333 2.30769230769231  L 2.91666666666667 2.30769230769231  C 2.75868055555556 2.30769230769231  2.62196180555556 2.36478365384615  2.50651041666667 2.47896634615385  C 2.39105902777778 2.59314903846154  2.33333333333333 2.72836538461538  3 2.88461538461538  L 3 17.8846153846154  C 2.33333333333333 18.0408653846154  2.39105902777778 18.1760817307692  2.50651041666667 18.2902644230769  C 2.62196180555556 18.4044471153846  2.75868055555556 18.4615384615385  2.91666666666667 18  L 32.0833333333333 18  C 32.2413194444444 18.4615384615385  32.3780381944444 18.4044471153846  32.4934895833333 18.2902644230769  Z M 34.1432291666667 0.847355769230769  C 34.7144097222222 1.41225961538461  35 2.09134615384615  35 2.88461538461538  L 35 22.5  C 35 23.2932692307692  34.7144097222222 23.9723557692308  34.1432291666667 24.5372596153846  C 33.5720486111111 25.1021634615385  32.8854166666667 25.3846153846154  32.0833333333333 25.3846153846154  L 22.1666666666667 25.3846153846154  C 22.1666666666667 25.8293269230769  22.2638888888889 26.2950721153846  22.4583333333333 26.7818509615385  C 22.6527777777778 27.2686298076923  22.8472222222222 27.6953125  23.0416666666667 28.0618990384615  C 23.2361111111111 28.4284855769231  23.3333333333333 28.6899038461538  23.3333333333333 28.8461538461538  C 23.3333333333333 29.1586538461538  23.2178819444444 29.4290865384615  22.9869791666667 29.6574519230769  C 22.7560763888889 29.8858173076923  22.4826388888889 30  22.1666666666667 30  L 12.8333333333333 30  C 12.5173611111111 30  12.2439236111111 29.8858173076923  12.0130208333333 29.6574519230769  C 11.7821180555556 29.4290865384615  11.6666666666667 29.1586538461538  11.6666666666667 28.8461538461538  C 11.6666666666667 28.6778846153846  11.7638888888889 28.4134615384615  11.9583333333333 28.0528846153846  C 12.1527777777778 27.6923076923077  12.3472222222222 27.2716346153846  12.5416666666667 26.7908653846154  C 12.7361111111111 26.3100961538462  12.8333333333333 25.8413461538462  12.8333333333333 25.3846153846154  L 2.91666666666667 25.3846153846154  C 2.11458333333333 25.3846153846154  1.42795138888889 25.1021634615385  0.856770833333333 24.5372596153846  C 0.285590277777778 23.9723557692308  0 23.2932692307692  0 22.5  L 0 2.88461538461538  C 0 2.09134615384615  0.285590277777778 1.41225961538461  0.856770833333333 0.847355769230769  C 1.42795138888889 0.282451923076923  2.11458333333333 0  2.91666666666667 0  L 32.0833333333333 0  C 32.8854166666667 0  33.5720486111111 0.282451923076923  34.1432291666667 0.847355769230769  Z " fill-rule="nonzero" fill="#000000" stroke="none" transform="matrix(1 0 0 1 746 720 )" />
  </g>
</svg>