<?xml version="1.0" encoding="utf-8"?>
<svg version="1.1" xmlns:xlink="http://www.w3.org/1999/xlink" width="14px" height="15px" xmlns="http://www.w3.org/2000/svg">
  <g transform="matrix(1 0 0 1 -215 -723 )">
    <path d="M 13.7447916666667 0.252403846153847  C 13.9149305555556 0.420673076923075  14 0.624999999999999  14 0.865384615384616  L 14 10.9615384615385  C 14 11.2620192307692  13.8967013888889 11.5294471153846  13.6901041666667 11.7638221153846  C 13.4835069444444 11.9981971153846  13.2222222222222 12.1799879807692  12.90625 12.3091947115385  C 12.5902777777778 12.4384014423077  12.2758246527778 12.5345552884615  11.962890625 12.59765625  C 11.6499565972222 12.6607572115385  11.3567708333333 12.6923076923077  11.0833333333333 12.6923076923077  C 10.8098958333333 12.6923076923077  10.5167100694444 12.6607572115385  10.2037760416667 12.59765625  C 9.89084201388889 12.5345552884615  9.57638888888889 12.4384014423077  9.26041666666667 12.3091947115385  C 8.94444444444444 12.1799879807692  8.68315972222222 11.9981971153846  8.4765625 11.7638221153846  C 8.26996527777778 11.5294471153846  8.16666666666667 11.2620192307692  8.16666666666667 10.9615384615385  C 8.16666666666667 10.6610576923077  8.26996527777778 10.3936298076923  8.4765625 10.1592548076923  C 8.68315972222222 9.92487980769231  8.94444444444444 9.74308894230769  9.26041666666667 9.61388221153846  C 9.57638888888889 9.48467548076923  9.89084201388889 9.38852163461539  10.2037760416667 9.32542067307692  C 10.5167100694444 9.26231971153846  10.8098958333333 9.23076923076923  11.0833333333333 9.23076923076923  C 11.7213541666667 9.23076923076923  12.3046875 9.34795673076923  12.8333333333333 9.58233173076923  L 12.8333333333333 4.74158653846154  L 5.83333333333333 6.87800480769231  L 5.83333333333333 13.2692307692308  C 5.83333333333333 13.5697115384615  5.73003472222222 13.8371394230769  5.5234375 14.0715144230769  C 5.31684027777778 14.3058894230769  5.05555555555556 14.4876802884615  4.73958333333333 14.6168870192308  C 4.42361111111111 14.74609375  4.10915798611111 14.8422475961538  3.79622395833333 14.9053485576923  C 3.48328993055556 14.9684495192308  3.19010416666667 15  2.91666666666667 15  C 2.64322916666667 15  2.35004340277778 14.9684495192308  2.037109375 14.9053485576923  C 1.72417534722222 14.8422475961538  1.40972222222222 14.74609375  1.09375 14.6168870192308  C 0.777777777777778 14.4876802884615  0.516493055555556 14.3058894230769  0.309895833333333 14.0715144230769  C 0.103298611111111 13.8371394230769  0 13.5697115384615  0 13.2692307692308  C 0 12.96875  0.103298611111111 12.7013221153846  0.309895833333333 12.4669471153846  C 0.516493055555556 12.2325721153846  0.777777777777778 12.05078125  1.09375 11.9215745192308  C 1.40972222222222 11.7923677884615  1.72417534722222 11.6962139423077  2.037109375 11.6331129807692  C 2.35004340277778 11.5700120192308  2.64322916666667 11.5384615384615  2.91666666666667 11.5384615384615  C 3.5546875 11.5384615384615  4.13802083333333 11.6556490384615  4.66666666666667 11.8900240384615  L 4.66666666666667 3.17307692307692  C 4.66666666666667 2.98677884615384  4.72439236111111 2.81700721153846  4.83984375 2.66376201923077  C 4.95529513888889 2.51051682692308  5.10416666666667 2.40384615384615  5.28645833333333 2.34375  L 12.8697916666667 0.0360576923076922  C 12.9427083333333 0.0120192307692307  13.0277777777778 0  13.125 0  C 13.3680555555556 0  13.5746527777778 0.0841346153846151  13.7447916666667 0.252403846153847  Z " fill-rule="nonzero" fill="#000000" stroke="none" transform="matrix(1 0 0 1 215 723 )" />
  </g>
</svg>