<?xml version="1.0" encoding="utf-8"?>
<svg version="1.1" xmlns:xlink="http://www.w3.org/1999/xlink" width="20px" height="20px" xmlns="http://www.w3.org/2000/svg">
  <g transform="matrix(1 0 0 1 -978 -422 )">
    <path d="M 988 422  C 993.6 422  998 426.4  998 432  C 998 437.6  993.6 442  988 442  C 982.4 442  978 437.6  978 432  C 978 426.4  982.4 422  988 422  Z " fill-rule="nonzero" fill="#ffffff" stroke="none" />
    <path d="M 988 422.5  C 993.32 422.5  997.5 426.68  997.5 432  C 997.5 437.32  993.32 441.5  988 441.5  C 982.68 441.5  978.5 437.32  978.5 432  C 978.5 426.68  982.68 422.5  988 422.5  Z " stroke-width="1" stroke="#797979" fill="none" />
  </g>
</svg>