<?xml version="1.0" encoding="utf-8"?>
<svg version="1.1" xmlns:xlink="http://www.w3.org/1999/xlink" width="70px" height="70px" xmlns="http://www.w3.org/2000/svg">
  <g transform="matrix(1 0 0 1 -624 -362 )">
    <path d="M 56.8252840909091 32.265625  C 57.1235795454545 32.5639204545455  57.2727272727273 32.9450757575758  57.2727272727273 33.4090909090909  L 57.2727272727273 36.5909090909091  C 57.2727272727273 37.0549242424242  57.1235795454545 37.4360795454545  56.8252840909091 37.734375  C 56.5269886363636 38.0326704545455  56.1458333333333 38.1818181818182  55.6818181818182 38  L 38 38  L 38 55.6818181818182  C 38.1818181818182 56.1458333333333  38.0326704545455 56.5269886363636  37.734375 56.8252840909091  C 37.4360795454545 57.1235795454545  37.0549242424242 57.2727272727273  36.5909090909091 57.2727272727273  L 33.4090909090909 57.2727272727273  C 32.9450757575758 57.2727272727273  32.5639204545455 57.1235795454545  32.265625 56.8252840909091  C 31.9673295454545 56.5269886363636  31.8181818181818 56.1458333333333  32 55.6818181818182  L 32 38  L 14.3181818181818 38  C 13.8541666666667 38.1818181818182  13.4730113636364 38.0326704545455  13.1747159090909 37.734375  C 12.8764204545455 37.4360795454545  12.7272727272727 37.0549242424242  12.7272727272727 36.5909090909091  L 12.7272727272727 33.4090909090909  C 12.7272727272727 32.9450757575758  12.8764204545455 32.5639204545455  13.1747159090909 32.265625  C 13.4730113636364 31.9673295454545  13.8541666666667 31.8181818181818  14.3181818181818 32  L 32 32  L 32 14.3181818181818  C 31.8181818181818 13.8541666666667  31.9673295454545 13.4730113636364  32.265625 13.1747159090909  C 32.5639204545455 12.8764204545455  32.9450757575758 12.7272727272727  33.4090909090909 12.7272727272727  L 36.5909090909091 12.7272727272727  C 37.0549242424242 12.7272727272727  37.4360795454545 12.8764204545455  37.734375 13.1747159090909  C 38.0326704545455 13.4730113636364  38.1818181818182 13.8541666666667  38 14.3181818181818  L 38 32  L 55.6818181818182 32  C 56.1458333333333 31.8181818181818  56.5269886363636 31.9673295454545  56.8252840909091 32.265625  Z M 61.2997159090909 61.2997159090909  C 62.8574810606061 59.7419507575757  63.6363636363636 57.8693181818182  63 55.6818181818182  L 63 14.3181818181818  C 63.6363636363636 12.1306818181818  62.8574810606061 10.2580492424242  61.2997159090909 8.70028409090909  C 59.7419507575758 7.14251893939393  57.8693181818182 6.36363636363637  55.6818181818182 7  L 14.3181818181818 7  C 12.1306818181818 6.36363636363637  10.2580492424242 7.14251893939393  8.70028409090909 8.70028409090909  C 7.14251893939394 10.2580492424242  6.36363636363636 12.1306818181818  7 14.3181818181818  L 7 55.6818181818182  C 6.36363636363636 57.8693181818182  7.14251893939394 59.7419507575757  8.70028409090909 61.2997159090909  C 10.2580492424242 62.8574810606061  12.1306818181818 63.6363636363636  14.3181818181818 63  L 55.6818181818182 63  C 57.8693181818182 63.6363636363636  59.7419507575758 62.8574810606061  61.2997159090909 61.2997159090909  Z M 65.7990056818182 4.20099431818182  C 68.5996685606061 7.00165719696969  70 10.374053030303  70 14.3181818181818  L 70 55.6818181818182  C 70 59.625946969697  68.5996685606061 62.9983428030303  65.7990056818182 65.7990056818182  C 62.9983428030303 68.5996685606061  59.625946969697 70  55.6818181818182 70  L 14.3181818181818 70  C 10.374053030303 70  7.0016571969697 68.5996685606061  4.20099431818182 65.7990056818182  C 1.40033143939394 62.9983428030303  0 59.625946969697  0 55.6818181818182  L 0 14.3181818181818  C 0 10.374053030303  1.40033143939394 7.00165719696969  4.20099431818182 4.20099431818182  C 7.0016571969697 1.40033143939393  10.374053030303 0  14.3181818181818 0  L 55.6818181818182 0  C 59.625946969697 0  62.9983428030303 1.40033143939393  65.7990056818182 4.20099431818182  Z " fill-rule="nonzero" fill="#aaaaaa" stroke="none" transform="matrix(1 0 0 1 624 362 )" />
  </g>
</svg>