<?xml version="1.0" encoding="utf-8"?>
<svg version="1.1" xmlns:xlink="http://www.w3.org/1999/xlink" width="70px" height="70px" xmlns="http://www.w3.org/2000/svg">
  <g transform="matrix(1 0 0 1 -534 -362 )">
    <path d="M 534 362  L 604 362  L 604 432  L 534 432  L 534 362  " fill-rule="nonzero" fill="#cccccc" stroke="none" />
    <path d="M 539 367  L 599 367  L 599 427  L 539 427  L 539 367  " fill-rule="nonzero" fill="#ffffff" stroke="none" />
    <path d="M 575.65 383  C 572.71 383  570.4 380.69  570.4 377.75  C 570.4 374.81  572.71 372.5  575.65 372.5  C 578.59 372.5  580.9 374.81  580.9 377.75  C 580.9 380.69  578.59 383  575.65 383  " fill-rule="nonzero" fill="#cccccc" stroke="none" />
    <path d="M 541 425  L 541 394.2  L 555 380.2  L 574.6 391.4  L 585.8 388.6  L 597 391.4  L 597 425  L 541 425  " fill-rule="nonzero" fill="#169bd5" stroke="none" />
  </g>
</svg>