<?xml version="1.0" encoding="utf-8"?>
<svg version="1.1" xmlns:xlink="http://www.w3.org/1999/xlink" width="30px" height="30px" xmlns="http://www.w3.org/2000/svg">
  <g transform="matrix(1 0 0 1 -785 -240 )">
    <path d="M 800 240  C 808.4 240  815 246.6  815 255  C 815 263.4  808.4 270  800 270  C 791.6 270  785 263.4  785 255  C 785 246.6  791.6 240  800 240  Z " fill-rule="nonzero" fill="#ffffff" stroke="none" />
    <path d="M 800 240.5  C 808.12 240.5  814.5 246.88  814.5 255  C 814.5 263.12  808.12 269.5  800 269.5  C 791.88 269.5  785.5 263.12  785.5 255  C 785.5 246.88  791.88 240.5  800 240.5  Z " stroke-width="1" stroke="#aaaaaa" fill="none" />
  </g>
</svg>