<?xml version="1.0" encoding="utf-8"?>
<svg version="1.1" xmlns:xlink="http://www.w3.org/1999/xlink" width="240px" height="240px" xmlns="http://www.w3.org/2000/svg">
  <g transform="matrix(1 0 0 1 -1096 -542 )">
    <path d="M 1216 542  C 1283.2 542  1336 594.8  1336 662  C 1336 729.2  1283.2 782  1216 782  C 1148.8 782  1096 729.2  1096 662  C 1096 594.8  1148.8 542  1216 542  Z " fill-rule="nonzero" fill="#ffffff" stroke="none" />
    <path d="M 1216 542.5  C 1282.92 542.5  1335.5 595.08  1335.5 662  C 1335.5 728.92  1282.92 781.5  1216 781.5  C 1149.08 781.5  1096.5 728.92  1096.5 662  C 1096.5 595.08  1149.08 542.5  1216 542.5  Z " stroke-width="1" stroke="#797979" fill="none" />
  </g>
</svg>