<?xml version="1.0" encoding="utf-8"?>
<svg version="1.1" xmlns:xlink="http://www.w3.org/1999/xlink" width="91px" height="91px" xmlns="http://www.w3.org/2000/svg">
  <g transform="matrix(1 0 0 1 -2431 -181 )">
    <path d="M 2476.5 181  C 2501.98 181  2522 201.02  2522 226.5  C 2522 251.98  2501.98 272  2476.5 272  C 2451.02 272  2431 251.98  2431 226.5  C 2431 201.02  2451.02 181  2476.5 181  Z " fill-rule="nonzero" fill="#ffffff" stroke="none" />
    <path d="M 2476.5 181.5  C 2501.7 181.5  2521.5 201.3  2521.5 226.5  C 2521.5 251.7  2501.7 271.5  2476.5 271.5  C 2451.3 271.5  2431.5 251.7  2431.5 226.5  C 2431.5 201.3  2451.3 181.5  2476.5 181.5  Z " stroke-width="1" stroke="#797979" fill="none" />
  </g>
</svg>