<?xml version="1.0" encoding="utf-8"?>
<svg version="1.1" xmlns:xlink="http://www.w3.org/1999/xlink" width="291px" height="275px" xmlns="http://www.w3.org/2000/svg">
  <g transform="matrix(1 0 0 1 -1691 -2046 )">
    <path d="M 1691 2046  L 1982 2046  L 1982 2321  L 1691 2321  L 1691 2046  " fill-rule="nonzero" fill="#cccccc" stroke="none" />
    <path d="M 1710 2065  L 1963 2065  L 1963 2302  L 1710 2302  L 1710 2065  " fill-rule="nonzero" fill="#ffffff" stroke="none" />
    <path d="M 1862.945 2128.5  C 1851.395 2128.5  1842.32 2119.425  1842.32 2107.875  C 1842.32 2096.325  1851.395 2087.25  1862.945 2087.25  C 1874.495 2087.25  1883.57 2096.325  1883.57 2107.875  C 1883.57 2119.425  1874.495 2128.5  1862.945 2128.5  " fill-rule="nonzero" fill="#cccccc" stroke="none" />
    <path d="M 1717 2295  L 1717 2172.35  L 1776.75 2116.6  L 1860.4 2168.55670103093  L 1908.2 2150.05  L 1956 2168.55670103093  L 1956 2295  L 1717 2295  " fill-rule="nonzero" fill="#169bd5" stroke="none" />
  </g>
</svg>