<?xml version="1.0" encoding="utf-8"?>
<svg version="1.1" xmlns:xlink="http://www.w3.org/1999/xlink" width="40px" height="50px" xmlns="http://www.w3.org/2000/svg">
  <g transform="matrix(1 0 0 1 -932 -399 )">
    <path d="M 0 32  L 40 32  L 40 34.6028645833333  C 40 36.4474826388889  39.3807215939688 38.0154079861111  38.1421647819063 39.306640625  C 36.9036079698438 40.5978732638889  35.4119547657512 41.2434895833333  33.6672051696284 41.2434895833333  L 31.8255250403877 41.2434895833333  L 23.4248788368336 50  L 23.4248788368336 41  L 6.33279483037157 41  C 4.58804523424879 41.2434895833333  3.09639203015617 40.5978732638889  1.8578352180937 39.306640625  C 0.619278406031233 38.0154079861111  0 36.4474826388889  0 34.6028645833333  L 0 32  Z M 0 22  L 40 22  L 40 30  L 0 30  L 0 22  Z M 0 12  L 40 12  L 40 20  L 0 20  L 0 12  Z M 38.1421647819063 1.93684895833333  C 39.3807215939688 3.22808159722222  40 4.78515625  40 6.60807291666667  L 40 9  L 0 9  L 0 6.60807291666667  C 0 4.78515625  0.619278406031233 3.22808159722222  1.8578352180937 1.93684895833333  C 3.09639203015617 0.645616319444442  4.58804523424879 0  6.33279483037157 0  L 33.6672051696284 0  C 35.4119547657512 0  36.9036079698438 0.645616319444442  38.1421647819063 1.93684895833333  Z " fill-rule="nonzero" fill="#000000" stroke="none" transform="matrix(1 0 0 1 932 399 )" />
  </g>
</svg>