<?xml version="1.0" encoding="utf-8"?>
<svg version="1.1" xmlns:xlink="http://www.w3.org/1999/xlink" width="50px" height="41px" xmlns="http://www.w3.org/2000/svg">
  <g transform="matrix(1 0 0 1 -1022 -533 )">
    <path d="M 14.7058823529412 29.5145089285714  L 14.7058823529412 37.3392857142857  L 23.5294117647059 32.9464285714286  L 23.5294117647059 25.7622767857143  L 14.7058823529412 29.5145089285714  Z M 3.95220588235294 22.9938616071429  L 13.2352941176471 26.9520089285714  L 22.5183823529412 22.9938616071429  L 13.2352941176471 19.0357142857143  L 3.95220588235294 22.9938616071429  Z M 38.2352941176471 29.5145089285714  L 38.2352941176471 37.3392857142857  L 47.0588235294118 32.9464285714286  L 47.0588235294118 25.7622767857143  L 38.2352941176471 29.5145089285714  Z M 27.4816176470588 22.9938616071429  L 36.7647058823529 26.9520089285714  L 46.0477941176471 22.9938616071429  L 36.7647058823529 19.0357142857143  L 27.4816176470588 22.9938616071429  Z M 26.4705882352941 14.1395089285714  L 26.4705882352941 20.2483258928571  L 35.2941176470588 16.4732142857143  L 35.2941176470588 10.3872767857143  L 26.4705882352941 14.1395089285714  Z M 14.8667279411765 7.25279017857143  L 25 11.5770089285714  L 35.1332720588235 7.25279017857143  L 25 2.92857142857143  L 14.8667279411765 7.25279017857143  Z M 49.5174632352941 21.8270089285714  C 49.8391544117647 22.3151041666667  50 22.8489583333333  50 23.4285714285714  L 50 32.9464285714286  C 50 33.4955357142857  49.8544730392157 34.0065104166667  49.5634191176471 34.4793526785714  C 49.2723651960784 34.9521949404762  48.8740808823529 35.3106398809524  48.3685661764706 35.5546875  L 38.0744485294118 40.6796875  C 37.6914828431373 40.8932291666667  37.2549019607843 41  36.7647058823529 41  C 36.2745098039216 41  35.8379289215686 40.8932291666667  35.4549632352941 40.6796875  L 25.1608455882353 35.5546875  C 25.0995710784314 35.5241815476191  25.0459558823529 35.4936755952381  25 35.4631696428571  C 24.969362745098 35.4936755952381  24.9157475490196 35.5241815476191  24.8391544117647 35.5546875  L 14.5450367647059 40.6796875  C 14.1620710784314 40.8932291666667  13.7254901960784 41  13.2352941176471 41  C 12.7450980392157 41  12.3085171568627 40.8932291666667  11.9255514705882 40.6796875  L 1.63143382352941 35.5546875  C 1.12591911764706 35.3106398809524  0.727634803921569 34.9521949404762  0.436580882352941 34.4793526785714  C 0.145526960784314 34.0065104166667  0 33.4955357142857  0 32.9464285714286  L 0 23.4285714285714  C 0 22.8489583333333  0.164675245098039 22.3151041666667  0.494025735294118 21.8270089285714  C 0.823376225490196 21.3389136904762  1.25612745098039 20.9728422619048  1.79227941176471 20.7287946428571  L 11.7647058823529 16.4732142857143  L 11.7647058823529 7.32142857142857  C 11.7647058823529 6.74181547619047  11.929381127451 6.20796130952381  12.2587316176471 5.71986607142857  C 12.5880821078431 5.23177083333333  13.0208333333333 4.8656994047619  13.5569852941176 4.62165178571429  L 23.8511029411765 0.228794642857141  C 24.203431372549 0.0762648809523864  24.5863970588235 0  25 0  C 25.4136029411765 0  25.796568627451 0.0762648809523864  26.1488970588235 0.228794642857141  L 36.4430147058824 4.62165178571429  C 36.9791666666667 4.8656994047619  37.4119178921569 5.23177083333333  37.7412683823529 5.71986607142857  C 38.070618872549 6.20796130952381  38.2352941176471 6.74181547619047  38.2352941176471 7.32142857142857  L 38.2352941176471 16.4732142857143  L 48.2077205882353 20.7287946428571  C 48.7591911764706 20.9728422619048  49.1957720588235 21.3389136904762  49.5174632352941 21.8270089285714  Z " fill-rule="nonzero" fill="#000000" stroke="none" transform="matrix(1 0 0 1 1022 533 )" />
  </g>
</svg>