<?xml version="1.0" encoding="utf-8"?>
<svg version="1.1" xmlns:xlink="http://www.w3.org/1999/xlink" width="12px" height="12px" viewBox="653 599  12 12" xmlns="http://www.w3.org/2000/svg">
  <path d="M 659 599  C 662.36 599  665 601.64  665 605  C 665 608.36  662.36 611  659 611  C 655.64 611  653 608.36  653 605  C 653 601.64  655.64 599  659 599  Z " fill-rule="nonzero" fill="#f0f0f0" stroke="none" />
  <path d="M 659 599.5  C 662.08 599.5  664.5 601.92  664.5 605  C 664.5 608.08  662.08 610.5  659 610.5  C 655.92 610.5  653.5 608.08  653.5 605  C 653.5 601.92  655.92 599.5  659 599.5  Z " stroke-width="1" stroke="#797979" fill="none" />
  <path d="M 659 608  C 657.32 608  656 606.68  656 605  C 656 603.32  657.32 602  659 602  C 660.68 602  662 603.32  662 605  C 662 606.68  660.68 608  659 608  " fill-rule="nonzero" fill="#797979" stroke="none" />
</svg>