<?xml version="1.0" encoding="utf-8"?>
<svg version="1.1" xmlns:xlink="http://www.w3.org/1999/xlink" width="90px" height="90px" xmlns="http://www.w3.org/2000/svg">
  <g transform="matrix(1 0 0 1 -1604 -260 )">
    <path d="M 1649 260  C 1674.2 260  1694 279.8  1694 305  C 1694 330.2  1674.2 350  1649 350  C 1623.8 350  1604 330.2  1604 305  C 1604 279.8  1623.8 260  1649 260  Z " fill-rule="nonzero" fill="#ffffff" stroke="none" />
    <path d="M 1649 260.5  C 1673.92 260.5  1693.5 280.08  1693.5 305  C 1693.5 329.92  1673.92 349.5  1649 349.5  C 1624.08 349.5  1604.5 329.92  1604.5 305  C 1604.5 280.08  1624.08 260.5  1649 260.5  Z " stroke-width="1" stroke="#aaaaaa" fill="none" />
  </g>
</svg>