<?xml version="1.0" encoding="utf-8"?>
<svg version="1.1" xmlns:xlink="http://www.w3.org/1999/xlink" width="68px" height="61px" xmlns="http://www.w3.org/2000/svg">
  <g transform="matrix(1 0 0 1 -913 -167 )">
    <path d="M 913 167  L 981 167  L 981 228  L 913 228  L 913 167  " fill-rule="nonzero" fill="#cccccc" stroke="none" />
    <path d="M 917 171  L 977 171  L 977 224  L 917 224  L 917 171  " fill-rule="nonzero" fill="#ffffff" stroke="none" />
    <path d="M 952.935 185.3  C 950.373 185.3  948.36 183.287  948.36 180.725  C 948.36 178.163  950.373 176.15  952.935 176.15  C 955.497 176.15  957.51 178.163  957.51 180.725  C 957.51 183.287  955.497 185.3  952.935 185.3  " fill-rule="nonzero" fill="#cccccc" stroke="none" />
    <path d="M 919 223  L 919 195.5  L 933.25 183  L 953.2 196.088235294118  L 964.6 190.5  L 976 196.088235294118  L 976 223  L 919 223  " fill-rule="nonzero" fill="#169bd5" stroke="none" />
  </g>
</svg>