<?xml version="1.0" encoding="utf-8"?>
<svg version="1.1" xmlns:xlink="http://www.w3.org/1999/xlink" width="12px" height="12px" viewBox="808 387  12 12" xmlns="http://www.w3.org/2000/svg">
  <path d="M 814 387  C 817.36 387  820 389.64  820 393  C 820 396.36  817.36 399  814 399  C 810.64 399  808 396.36  808 393  C 808 389.64  810.64 387  814 387  Z " fill-rule="nonzero" fill="#f0f0f0" stroke="none" />
  <path d="M 814 387.5  C 817.08 387.5  819.5 389.92  819.5 393  C 819.5 396.08  817.08 398.5  814 398.5  C 810.92 398.5  808.5 396.08  808.5 393  C 808.5 389.92  810.92 387.5  814 387.5  Z " stroke-width="1" stroke="#797979" fill="none" />
  <path d="M 814 396  C 812.32 396  811 394.68  811 393  C 811 391.32  812.32 390  814 390  C 815.68 390  817 391.32  817 393  C 817 394.68  815.68 396  814 396  " fill-rule="nonzero" fill="#797979" stroke="none" />
</svg>