<?xml version="1.0" encoding="utf-8"?>
<svg version="1.1" xmlns:xlink="http://www.w3.org/1999/xlink" width="45px" height="45px" xmlns="http://www.w3.org/2000/svg">
  <g transform="matrix(1 0 0 1 -272 -649 )">
    <path d="M 294.5 649  C 307.1 649  317 658.9  317 671.5  C 317 684.1  307.1 694  294.5 694  C 281.9 694  272 684.1  272 671.5  C 272 658.9  281.9 649  294.5 649  Z " fill-rule="nonzero" fill="#ffffff" stroke="none" />
    <path d="M 294.5 649.5  C 306.82 649.5  316.5 659.18  316.5 671.5  C 316.5 683.82  306.82 693.5  294.5 693.5  C 282.18 693.5  272.5 683.82  272.5 671.5  C 272.5 659.18  282.18 649.5  294.5 649.5  Z " stroke-width="1" stroke="#797979" fill="none" />
  </g>
</svg>