<?xml version="1.0" encoding="utf-8"?>
<svg version="1.1" xmlns:xlink="http://www.w3.org/1999/xlink" width="30px" height="30px" xmlns="http://www.w3.org/2000/svg">
  <g transform="matrix(1 0 0 1 -2773 -1993 )">
    <path d="M 29.8409598214286 19.4977678571429  C 29.9469866071429 19.6391369047619  30 19.8065476190476  30 20  L 30 24.2857142857143  C 30 24.4791666666667  29.9469866071429 24.6465773809524  29.8409598214286 24.7879464285714  C 29.7349330357143 24.9293154761905  29.609375 25  29.4642857142857 25  L 6.42857142857143 25  L 6.42857142857143 29.2857142857143  C 6.42857142857143 29.4791666666667  6.37555803571429 29.6465773809524  6.26953125 29.7879464285714  C 6.16350446428571 29.9293154761905  6.03794642857143 30  5.89285714285714 30  C 5.75892857142857 30  5.625 29.9255952380952  5.49107142857143 29.7767857142857  L 0.150669642857143 22.6339285714286  C 0.0502232142857143 22.5  0 22.3363095238095  0 22.1428571428571  C 0 21.9345238095238  0.0502232142857143 21.7633928571429  0.150669642857143 21.6294642857143  L 5.5078125 14.4866071428571  C 5.60825892857143 14.3526785714286  5.73660714285714 14.2857142857143  5.89285714285714 14.2857142857143  C 6.03794642857143 14.2857142857143  6.16350446428571 14.3563988095238  6.26953125 14.4977678571429  C 6.37555803571429 14.6391369047619  6.42857142857143 14.8065476190476  6.42857142857143 15  L 6.42857142857143 19  L 29.4642857142857 19  C 29.609375 19.2857142857143  29.7349330357143 19.3563988095238  29.8409598214286 19.4977678571429  Z M 29.8493303571429 7.34375  C 29.9497767857143 7.47767857142857  30 7.64880952380952  30 7.85714285714286  C 30 8.06547619047619  29.9497767857143 8.23660714285714  29.8493303571429 8.37053571428571  L 24.4921875 15.5133928571429  C 24.3917410714286 15.6473214285714  24.2633928571429 15.7142857142857  24.1071428571429 15.7142857142857  C 23.9620535714286 15.7142857142857  23.8364955357143 15.6436011904762  23.73046875 15.5022321428571  C 23.6244419642857 15.3608630952381  23.5714285714286 15.1934523809524  23.5714285714286 15  L 23.5714285714286 11  L 0.535714285714286 11  C 0.390625 10.7142857142857  0.265066964285714 10.6436011904762  0.159040178571429 10.5022321428571  C 0.0530133928571429 10.3608630952381  0 10.1934523809524  0 10  L 0 5.71428571428571  C 0 5.52083333333333  0.0530133928571429 5.35342261904762  0.159040178571429 5.21205357142857  C 0.265066964285714 5.07068452380952  0.390625 5  0.535714285714286 5  L 23.5714285714286 5  L 23.5714285714286 0.714285714285715  C 23.5714285714286 0.505952380952379  23.6216517857143 0.334821428571429  23.7220982142857 0.200892857142858  C 23.8225446428571 0.0669642857142871  23.9508928571429 0  24.1071428571429 0  C 24.2410714285714 0  24.375 0.0744047619047616  24.5089285714286 0.223214285714285  L 29.8493303571429 7.34375  Z " fill-rule="nonzero" fill="#333333" stroke="none" transform="matrix(1 0 0 1 2773 1993 )" />
  </g>
</svg>