<?xml version="1.0" encoding="utf-8"?>
<svg version="1.1" xmlns:xlink="http://www.w3.org/1999/xlink" width="150px" height="150px" xmlns="http://www.w3.org/2000/svg">
  <g transform="matrix(1 0 0 1 -244 -323 )">
    <path d="M 319 323  C 361 323  394 356  394 398  C 394 440  361 473  319 473  C 277 473  244 440  244 398  C 244 356  277 323  319 323  Z " fill-rule="nonzero" fill="#ffffff" stroke="none" />
    <path d="M 319 323.5  C 360.72 323.5  393.5 356.28  393.5 398  C 393.5 439.72  360.72 472.5  319 472.5  C 277.28 472.5  244.5 439.72  244.5 398  C 244.5 356.28  277.28 323.5  319 323.5  Z " stroke-width="1" stroke="#797979" fill="none" />
  </g>
</svg>