<?xml version="1.0" encoding="utf-8"?>
<svg version="1.1" xmlns:xlink="http://www.w3.org/1999/xlink" width="45px" height="45px" xmlns="http://www.w3.org/2000/svg">
  <g transform="matrix(1 0 0 1 -486 -284 )">
    <path d="M 508.5 284  C 521.1 284  531 293.9  531 306.5  C 531 319.1  521.1 329  508.5 329  C 495.9 329  486 319.1  486 306.5  C 486 293.9  495.9 284  508.5 284  Z " fill-rule="nonzero" fill="#ffffff" stroke="none" />
    <path d="M 508.5 284.5  C 520.82 284.5  530.5 294.18  530.5 306.5  C 530.5 318.82  520.82 328.5  508.5 328.5  C 496.18 328.5  486.5 318.82  486.5 306.5  C 486.5 294.18  496.18 284.5  508.5 284.5  Z " stroke-width="1" stroke="#aaaaaa" fill="none" />
  </g>
</svg>