<?xml version="1.0" encoding="utf-8"?>
<svg version="1.1" xmlns:xlink="http://www.w3.org/1999/xlink" width="35px" height="35px" xmlns="http://www.w3.org/2000/svg">
  <g transform="matrix(1 0 0 1 -541 -425 )">
    <path d="M 558.5 425  C 568.3 425  576 432.7  576 442.5  C 576 452.3  568.3 460  558.5 460  C 548.7 460  541 452.3  541 442.5  C 541 432.7  548.7 425  558.5 425  Z " fill-rule="nonzero" fill="#ffffff" stroke="none" />
    <path d="M 558.5 425.5  C 568.02 425.5  575.5 432.98  575.5 442.5  C 575.5 452.02  568.02 459.5  558.5 459.5  C 548.98 459.5  541.5 452.02  541.5 442.5  C 541.5 432.98  548.98 425.5  558.5 425.5  Z " stroke-width="1" stroke="#aaaaaa" fill="none" />
  </g>
</svg>