<?xml version="1.0" encoding="utf-8"?>
<svg version="1.1" xmlns:xlink="http://www.w3.org/1999/xlink" width="24px" height="24px" viewBox="1350 427  24 24" xmlns="http://www.w3.org/2000/svg">
  <path d="M 1362 427  C 1368.72 427  1374 432.28  1374 439  C 1374 445.72  1368.72 451  1362 451  C 1355.28 451  1350 445.72  1350 439  C 1350 432.28  1355.28 427  1362 427  Z " fill-rule="nonzero" fill="#ffffff" stroke="none" />
  <path d="M 1362 427.5  C 1368.44 427.5  1373.5 432.56  1373.5 439  C 1373.5 445.44  1368.44 450.5  1362 450.5  C 1355.56 450.5  1350.5 445.44  1350.5 439  C 1350.5 432.56  1355.56 427.5  1362 427.5  Z " stroke-width="1" stroke="#797979" fill="none" />
  <path d="M 1362 445  C 1358.64 445  1356 442.36  1356 439  C 1356 435.64  1358.64 433  1362 433  C 1365.36 433  1368 435.64  1368 439  C 1368 442.36  1365.36 445  1362 445  " fill-rule="nonzero" fill="#797979" stroke="none" />
</svg>