<?xml version="1.0" encoding="utf-8"?>
<svg version="1.1" xmlns:xlink="http://www.w3.org/1999/xlink" width="24px" height="24px" viewBox="1350 478  24 24" xmlns="http://www.w3.org/2000/svg">
  <path d="M 1362 478  C 1368.72 478  1374 483.28  1374 490  C 1374 496.72  1368.72 502  1362 502  C 1355.28 502  1350 496.72  1350 490  C 1350 483.28  1355.28 478  1362 478  Z " fill-rule="nonzero" fill="#ffffff" stroke="none" />
  <path d="M 1362 478.5  C 1368.44 478.5  1373.5 483.56  1373.5 490  C 1373.5 496.44  1368.44 501.5  1362 501.5  C 1355.56 501.5  1350.5 496.44  1350.5 490  C 1350.5 483.56  1355.56 478.5  1362 478.5  Z " stroke-width="1" stroke="#797979" fill="none" />
  <path d="M 1362 496  C 1358.64 496  1356 493.36  1356 490  C 1356 486.64  1358.64 484  1362 484  C 1365.36 484  1368 486.64  1368 490  C 1368 493.36  1365.36 496  1362 496  " fill-rule="nonzero" fill="#797979" stroke="none" />
</svg>