<?xml version="1.0" encoding="utf-8"?>
<svg version="1.1" xmlns:xlink="http://www.w3.org/1999/xlink" width="24px" height="24px" viewBox="1350 326  24 24" xmlns="http://www.w3.org/2000/svg">
  <path d="M 1362 326  C 1368.72 326  1374 331.28  1374 338  C 1374 344.72  1368.72 350  1362 350  C 1355.28 350  1350 344.72  1350 338  C 1350 331.28  1355.28 326  1362 326  Z " fill-rule="nonzero" fill="#f0f0f0" stroke="none" />
  <path d="M 1362 326.5  C 1368.44 326.5  1373.5 331.56  1373.5 338  C 1373.5 344.44  1368.44 349.5  1362 349.5  C 1355.56 349.5  1350.5 344.44  1350.5 338  C 1350.5 331.56  1355.56 326.5  1362 326.5  Z " stroke-width="1" stroke="#797979" fill="none" />
  <path d="M 1362 344  C 1358.64 344  1356 341.36  1356 338  C 1356 334.64  1358.64 332  1362 332  C 1365.36 332  1368 334.64  1368 338  C 1368 341.36  1365.36 344  1362 344  " fill-rule="nonzero" fill="#797979" stroke="none" />
</svg>