<?xml version="1.0" encoding="utf-8"?>
<svg version="1.1" xmlns:xlink="http://www.w3.org/1999/xlink" width="24px" height="24px" viewBox="1350 225  24 24" xmlns="http://www.w3.org/2000/svg">
  <path d="M 1362 225  C 1368.72 225  1374 230.28  1374 237  C 1374 243.72  1368.72 249  1362 249  C 1355.28 249  1350 243.72  1350 237  C 1350 230.28  1355.28 225  1362 225  Z " fill-rule="nonzero" fill="#ffffff" stroke="none" />
  <path d="M 1362 225.5  C 1368.44 225.5  1373.5 230.56  1373.5 237  C 1373.5 243.44  1368.44 248.5  1362 248.5  C 1355.56 248.5  1350.5 243.44  1350.5 237  C 1350.5 230.56  1355.56 225.5  1362 225.5  Z " stroke-width="1" stroke="#797979" fill="none" />
  <path d="M 1362 243  C 1358.64 243  1356 240.36  1356 237  C 1356 233.64  1358.64 231  1362 231  C 1365.36 231  1368 233.64  1368 237  C 1368 240.36  1365.36 243  1362 243  " fill-rule="nonzero" fill="#797979" stroke="none" />
</svg>