<?xml version="1.0" encoding="utf-8"?>
<svg version="1.1" xmlns:xlink="http://www.w3.org/1999/xlink" width="43px" height="50px" xmlns="http://www.w3.org/2000/svg">
  <g transform="matrix(1 0 0 1 -1675 -316 )">
    <path d="M 42.1041666666667 3.57142857142857  L 39.4166666666667 3.57142857142857  C 39.4166666666667 8.42633928571428  38.4228515625 12.7185639880952  36.4352213541667 16.4481026785714  C 34.4475911458333 20.1776413690476  31.9607204861111 23.0282738095238  28.974609375 25  C 31.9607204861111 26.9717261904762  34.4475911458333 29.8223586309524  36.4352213541667 33.5518973214286  C 38.4228515625 37.2814360119048  39.4166666666667 41.5736607142857  39.4166666666667 46.4285714285714  L 42.1041666666667 46.4285714285714  C 42.3654513888889 46.4285714285714  42.580078125 46.5122767857143  42.748046875 46.6796875  C 42.916015625 46.8470982142857  43 47.0610119047619  43 47.3214285714286  L 43 49.1071428571429  C 43 49.3675595238095  42.916015625 49.5814732142857  42.748046875 49.7488839285714  C 42.580078125 49.9162946428571  42.3654513888889 50  42.1041666666667 50  L 0.895833333333333 50  C 0.634548611111111 50  0.419921875 49.9162946428571  0.251953125 49.7488839285714  C 0.083984375 49.5814732142857  0 49.3675595238095  0 49.1071428571429  L 0 47.3214285714286  C 0 47.0610119047619  0.083984375 46.8470982142857  0.251953125 46.6796875  C 0.419921875 46.5122767857143  0.634548611111111 46.4285714285714  0.895833333333333 46.4285714285714  L 3.58333333333333 46.4285714285714  C 3.58333333333333 41.5736607142857  4.5771484375 37.2814360119048  6.56477864583333 33.5518973214286  C 8.55240885416667 29.8223586309524  11.0392795138889 26.9717261904762  14.025390625 25  C 11.0392795138889 23.0282738095238  8.55240885416667 20.1776413690476  6.56477864583333 16.4481026785714  C 4.5771484375 12.7185639880952  3.58333333333333 8.42633928571428  3.58333333333333 3.57142857142857  L 0.895833333333333 3.57142857142857  C 0.634548611111111 3.57142857142857  0.419921875 3.48772321428572  0.251953125 3.3203125  C 0.083984375 3.15290178571428  0 2.93898809523809  0 2.67857142857143  L 0 0.892857142857145  C 0 0.632440476190471  0.083984375 0.418526785714285  0.251953125 0.25111607142857  C 0.419921875 0.0837053571428548  0.634548611111111 0  0.895833333333333 0  L 42.1041666666667 0  C 42.3654513888889 0  42.580078125 0.0837053571428548  42.748046875 0.25111607142857  C 42.916015625 0.418526785714285  43 0.632440476190471  43 0.892857142857145  L 43 2.67857142857143  C 43 2.93898809523809  42.916015625 3.15290178571428  42.748046875 3.3203125  C 42.580078125 3.48772321428572  42.3654513888889 3.57142857142857  42.1041666666667 3.57142857142857  Z M 23.6136067708333 23.9815848214286  C 23.8282335069444 23.6746651785714  24.1128472222222 23.4561011904762  24.4674479166667 23.3258928571429  C 25.9045138888889 22.7864583333333  27.294921875 21.9261532738095  28.638671875 20.7449776785714  C 29.982421875 19.5638020833333  31.1908637152778 18.1454613095238  32.2639973958333 16.4899553571429  C 33.3371310763889 14.8344494047619  34.2003038194444 12.8813244047619  34.853515625 10.6305803571429  C 35.5067274305556 8.37983630952381  35.8333333333333 6.02678571428572  35.8333333333333 4  L 7.16666666666667 4  C 7.16666666666667 6.02678571428572  7.49327256944444 8.37983630952381  8.146484375 10.6305803571429  C 8.79969618055556 12.8813244047619  9.66286892361111 14.8344494047619  10.7360026041667 16.4899553571429  C 11.8091362847222 18.1454613095238  13.017578125 19.5638020833333  14.361328125 20.7449776785714  C 15.705078125 21.9261532738095  17.0954861111111 22.7864583333333  18.5325520833333 23.3258928571429  C 18.8871527777778 23.4561011904762  19.1717664930556 23.6746651785714  19.3863932291667 23.9815848214286  C 19.6010199652778 24.2885044642857  19.7083333333333 24.6279761904762  19.7083333333333 25  C 19.7083333333333 25.3720238095238  19.6010199652778 25.7114955357143  19.3863932291667 26.0184151785714  C 19.1717664930556 26.3253348214286  18.8871527777778 26.5438988095238  18.5325520833333 26.6741071428571  C 15.9756944444444 27.6227678571429  13.6987847222222 29.4456845238095  11.7018229166667 32  L 31.2981770833333 32  C 29.3012152777778 29.4456845238095  27.0243055555556 27.6227678571429  24.4674479166667 26.6741071428571  C 24.1128472222222 26.5438988095238  23.8282335069444 26.3253348214286  23.6136067708333 26.0184151785714  C 23.3989800347222 25.7114955357143  23.2916666666667 25.3720238095238  23.2916666666667 25  C 23.2916666666667 24.6279761904762  23.3989800347222 24.2885044642857  23.6136067708333 23.9815848214286  Z " fill-rule="nonzero" fill="#000000" stroke="none" transform="matrix(1 0 0 1 1675 316 )" />
  </g>
</svg>