<?xml version="1.0" encoding="utf-8"?>
<svg version="1.1" xmlns:xlink="http://www.w3.org/1999/xlink" width="80px" height="80px" xmlns="http://www.w3.org/2000/svg">
  <g transform="matrix(1 0 0 1 -2549 -310 )">
    <path d="M 57.65625 48.3333333333333  C 57.65625 48.7847222222222  57.4826388888889 49.1840277777778  57.1354166666667 49.53125  L 49.53125 57.1354166666667  C 49.1840277777778 57.4826388888889  48.7847222222222 57.65625  48.3333333333333 57.65625  C 47.8819444444445 57.65625  47.4826388888889 57.4826388888889  47.1354166666667 57.1354166666667  L 40 50  L 32.8645833333333 57.1354166666667  C 32.5173611111111 57.4826388888889  32.1180555555556 57.65625  31.6666666666667 57.65625  C 31.2152777777778 57.65625  30.8159722222222 57.4826388888889  30.46875 57.1354166666667  L 22.8645833333333 49.53125  C 22.5173611111111 49.1840277777778  22.34375 48.7847222222222  22.34375 48.3333333333333  C 22.34375 47.8819444444444  22.5173611111111 47.4826388888889  22.8645833333333 47.1354166666667  L 30 40  L 22.8645833333333 32.8645833333333  C 22.5173611111111 32.5173611111111  22.34375 32.1180555555556  22.34375 31.6666666666667  C 22.34375 31.2152777777778  22.5173611111111 30.8159722222222  22.8645833333333 30.46875  L 30.46875 22.8645833333333  C 30.8159722222222 22.5173611111111  31.2152777777778 22.34375  31.6666666666667 22.34375  C 32.1180555555556 22.34375  32.5173611111111 22.5173611111111  32.8645833333333 22.8645833333333  L 40 30  L 47.1354166666667 22.8645833333333  C 47.4826388888889 22.5173611111111  47.8819444444445 22.34375  48.3333333333333 22.34375  C 48.7847222222222 22.34375  49.1840277777778 22.5173611111111  49.53125 22.8645833333333  L 57.1354166666667 30.46875  C 57.4826388888889 30.8159722222222  57.65625 31.2152777777778  57.65625 31.6666666666667  C 57.65625 32.1180555555556  57.4826388888889 32.5173611111111  57.1354166666667 32.8645833333333  L 50 40  L 57.1354166666667 47.1354166666667  C 57.4826388888889 47.4826388888889  57.65625 47.8819444444444  57.65625 48.3333333333333  Z M 64.53125 54.21875  C 67.0659722222222 49.8784722222222  68.3333333333333 45.1388888888889  68.3333333333333 40  C 68.3333333333333 34.8611111111111  67.0659722222222 30.1215277777778  64.53125 25.78125  C 61.9965277777778 21.4409722222222  58.5590277777778 18.0034722222222  54.21875 15.46875  C 49.8784722222222 12.9340277777778  45.1388888888889 11.6666666666667  40 11.6666666666667  C 34.8611111111111 11.6666666666667  30.1215277777778 12.9340277777778  25.78125 15.46875  C 21.4409722222222 18.0034722222222  18.0034722222222 21.4409722222222  15.46875 25.78125  C 12.9340277777778 30.1215277777778  11.6666666666667 34.8611111111111  11.6666666666667 40  C 11.6666666666667 45.1388888888889  12.9340277777778 49.8784722222222  15.46875 54.21875  C 18.0034722222222 58.5590277777778  21.4409722222222 61.9965277777778  25.78125 64.53125  C 30.1215277777778 67.0659722222222  34.8611111111111 68.3333333333333  40 68.3333333333333  C 45.1388888888889 68.3333333333333  49.8784722222222 67.0659722222222  54.21875 64.53125  C 58.5590277777778 61.9965277777778  61.9965277777778 58.5590277777778  64.53125 54.21875  Z M 74.6354166666667 19.921875  C 78.2118055555555 26.0503472222222  80 32.7430555555555  80 40  C 80 47.2569444444444  78.2118055555555 53.9496527777778  74.6354166666667 60.078125  C 71.0590277777778 66.2065972222222  66.2065972222222 71.0590277777778  60.078125 74.6354166666667  C 53.9496527777778 78.2118055555556  47.2569444444444 80  40 80  C 32.7430555555556 80  26.0503472222222 78.2118055555556  19.921875 74.6354166666667  C 13.7934027777778 71.0590277777778  8.94097222222222 66.2065972222222  5.36458333333333 60.078125  C 1.78819444444444 53.9496527777778  0 47.2569444444444  0 40  C 0 32.7430555555555  1.78819444444444 26.0503472222222  5.36458333333333 19.921875  C 8.94097222222222 13.7934027777778  13.7934027777778 8.94097222222221  19.921875 5.36458333333333  C 26.0503472222222 1.78819444444444  32.7430555555556 0  40 0  C 47.2569444444444 0  53.9496527777778 1.78819444444444  60.078125 5.36458333333333  C 66.2065972222222 8.94097222222221  71.0590277777778 13.7934027777778  74.6354166666667 19.921875  Z " fill-rule="nonzero" fill="#000000" stroke="none" transform="matrix(1 0 0 1 2549 310 )" />
  </g>
</svg>