<?xml version="1.0" encoding="utf-8"?>
<svg version="1.1" xmlns:xlink="http://www.w3.org/1999/xlink" width="52px" height="60px" xmlns="http://www.w3.org/2000/svg">
  <g transform="matrix(1 0 0 1 -2998 -316 )">
    <path d="M 50.9166666666667 4.28571428571428  L 47.6666666666667 4.28571428571428  C 47.6666666666667 10.1116071428571  46.46484375 15.2622767857143  44.0611979166667 19.7377232142857  C 41.6575520833333 24.2131696428571  38.6501736111111 27.6339285714286  35.0390625 30  C 38.6501736111111 32.3660714285714  41.6575520833333 35.7868303571429  44.0611979166667 40.2622767857143  C 46.46484375 44.7377232142857  47.6666666666667 49.8883928571429  47.6666666666667 55.7142857142857  L 50.9166666666667 55.7142857142857  C 51.2326388888889 55.7142857142857  51.4921875 55.8147321428571  51.6953125 56.015625  C 51.8984375 56.2165178571429  52 56.4732142857143  52 56.7857142857143  L 52 58.9285714285714  C 52 59.2410714285714  51.8984375 59.4977678571429  51.6953125 59.6986607142857  C 51.4921875 59.8995535714286  51.2326388888889 60  50.9166666666667 60  L 1.08333333333333 60  C 0.767361111111111 60  0.5078125 59.8995535714286  0.3046875 59.6986607142857  C 0.1015625 59.4977678571429  0 59.2410714285714  0 58.9285714285714  L 0 56.7857142857143  C 0 56.4732142857143  0.1015625 56.2165178571429  0.3046875 56.015625  C 0.5078125 55.8147321428571  0.767361111111111 55.7142857142857  1.08333333333333 55.7142857142857  L 4.33333333333333 55.7142857142857  C 4.33333333333333 49.8883928571429  5.53515625 44.7377232142857  7.93880208333333 40.2622767857143  C 10.3424479166667 35.7868303571429  13.3498263888889 32.3660714285714  16.9609375 30  C 13.3498263888889 27.6339285714286  10.3424479166667 24.2131696428571  7.93880208333333 19.7377232142857  C 5.53515625 15.2622767857143  4.33333333333333 10.1116071428571  4.33333333333333 4.28571428571428  L 1.08333333333333 4.28571428571428  C 0.767361111111111 4.28571428571428  0.5078125 4.18526785714286  0.3046875 3.984375  C 0.1015625 3.78348214285714  0 3.52678571428571  0 3.21428571428572  L 0 1.07142857142857  C 0 0.758928571428565  0.1015625 0.502232142857142  0.3046875 0.301339285714284  C 0.5078125 0.100446428571426  0.767361111111111 0  1.08333333333333 0  L 50.9166666666667 0  C 51.2326388888889 0  51.4921875 0.100446428571426  51.6953125 0.301339285714284  C 51.8984375 0.502232142857142  52 0.758928571428565  52 1.07142857142857  L 52 3.21428571428572  C 52 3.52678571428571  51.8984375 3.78348214285714  51.6953125 3.984375  C 51.4921875 4.18526785714286  51.2326388888889 4.28571428571428  50.9166666666667 4.28571428571428  Z M 28.5559895833333 28.7779017857143  C 28.8155381944444 28.4095982142857  29.1597222222222 28.1473214285714  29.5885416666667 27.9910714285714  C 31.3263888888889 27.34375  33.0078125 26.3113839285714  34.6328125 24.8939732142857  C 36.2578125 23.4765625  37.7191840277778 21.7745535714286  39.0169270833333 19.7879464285714  C 40.3146701388889 17.8013392857143  41.3585069444444 15.4575892857143  42.1484375 12.7566964285714  C 42.9383680555556 10.0558035714286  43.3333333333333 7.23214285714286  43.3333333333333 5  L 8.66666666666667 5  C 8.66666666666667 7.23214285714286  9.06163194444444 10.0558035714286  9.8515625 12.7566964285714  C 10.6414930555556 15.4575892857143  11.6853298611111 17.8013392857143  12.9830729166667 19.7879464285714  C 14.2808159722222 21.7745535714286  15.7421875 23.4765625  17.3671875 24.8939732142857  C 18.9921875 26.3113839285714  20.6736111111111 27.34375  22.4114583333333 27.9910714285714  C 22.8402777777778 28.1473214285714  23.1844618055556 28.4095982142857  23.4440104166667 28.7779017857143  C 23.7035590277778 29.1462053571429  23.8333333333333 29.5535714285714  23.8333333333333 30  C 23.8333333333333 30.4464285714286  23.7035590277778 30.8537946428571  23.4440104166667 31.2220982142857  C 23.1844618055556 31.5904017857143  22.8402777777778 31.8526785714286  22.4114583333333 32.0089285714286  C 19.3194444444444 33.1473214285714  16.5659722222222 35.3348214285714  14.1510416666667 38  L 37.8489583333333 38  C 35.4340277777778 35.3348214285714  32.6805555555556 33.1473214285714  29.5885416666667 32.0089285714286  C 29.1597222222222 31.8526785714286  28.8155381944444 31.5904017857143  28.5559895833333 31.2220982142857  C 28.2964409722222 30.8537946428571  28.1666666666667 30.4464285714286  28.1666666666667 30  C 28.1666666666667 29.5535714285714  28.2964409722222 29.1462053571429  28.5559895833333 28.7779017857143  Z " fill-rule="nonzero" fill="#000000" stroke="none" transform="matrix(1 0 0 1 2998 316 )" />
  </g>
</svg>