<?xml version="1.0" encoding="utf-8"?>
<svg version="1.1" xmlns:xlink="http://www.w3.org/1999/xlink" width="18px" height="30px" xmlns="http://www.w3.org/2000/svg">
  <g transform="matrix(1 0 0 1 -286 -657 )">
    <path d="M 10.32421875 28.32421875  C 10.69140625 27.95703125  10.875 27.515625  10.875 27  C 10.875 26.484375  10.69140625 26.04296875  10.32421875 25.67578125  C 9.95703125 25.30859375  9.515625 25.125  9 25.125  C 8.484375 25.125  8.04296875 25.30859375  7.67578125 25.67578125  C 7.30859375 26.04296875  7.125 26.484375  7.125 27  C 7.125 27.515625  7.30859375 27.95703125  7.67578125 28.32421875  C 8.04296875 28.69140625  8.484375 28.875  9 28.875  C 9.515625 28.875  9.95703125 28.69140625  10.32421875 28.32421875  Z M 15.52734375 23.77734375  C 15.67578125 23.62890625  15.75 23.453125  15.75 23.25  L 15.75 6.75  C 15.75 6.546875  15.67578125 6.37109375  15.52734375 6.22265625  C 15.37890625 6.07421875  15.203125 6  15 6  L 3 6  C 2.796875 6  2.62109375 6.07421875  2.47265625 6.22265625  C 2.32421875 6.37109375  2.25 6.546875  2.25 6.75  L 2.25 23.25  C 2.25 23.453125  2.32421875 23.62890625  2.47265625 23.77734375  C 2.62109375 23.92578125  2.796875 24  3 24  L 15 24  C 15.203125 24  15.37890625 23.92578125  15.52734375 23.77734375  Z M 10.875 3.75  C 11.125 3.75  11.25 3.625  11.25 3.375  C 11.25 3.125  11.125 3  10.875 3  L 7.125 3  C 6.875 3  6.75 3.125  6.75 3.375  C 6.75 3.625  6.875 3.75  7.125 3.75  L 10.875 3.75  Z M 17.109375 0.890624999999999  C 17.703125 1.484375  18 2.1875  18 3  L 18 27  C 18 27.8125  17.703125 28.515625  17.109375 29.109375  C 16.515625 29.703125  15.8125 30  15 30  L 3 30  C 2.1875 30  1.484375 29.703125  0.890625 29.109375  C 0.296875 28.515625  0 27.8125  0 27  L 0 3  C 0 2.1875  0.296875 1.484375  0.890625 0.890624999999999  C 1.484375 0.296874999999996  2.1875 0  3 0  L 15 0  C 15.8125 0  16.515625 0.296874999999996  17.109375 0.890624999999999  Z " fill-rule="nonzero" fill="#000000" stroke="none" transform="matrix(1 0 0 1 286 657 )" />
  </g>
</svg>