<?xml version="1.0" encoding="utf-8"?>
<svg version="1.1" xmlns:xlink="http://www.w3.org/1999/xlink" width="50px" height="50px" xmlns="http://www.w3.org/2000/svg">
  <g transform="matrix(1 0 0 1 -716 -212 )">
    <path d="M 741 212  C 755 212  766 223  766 237  C 766 251  755 262  741 262  C 727 262  716 251  716 237  C 716 223  727 212  741 212  Z " fill-rule="nonzero" fill="#ffffff" stroke="none" />
    <path d="M 741 212.5  C 754.72 212.5  765.5 223.28  765.5 237  C 765.5 250.72  754.72 261.5  741 261.5  C 727.28 261.5  716.5 250.72  716.5 237  C 716.5 223.28  727.28 212.5  741 212.5  Z " stroke-width="1" stroke="#aaaaaa" fill="none" />
  </g>
</svg>