<?xml version="1.0" encoding="utf-8"?>
<svg version="1.1" xmlns:xlink="http://www.w3.org/1999/xlink" width="12px" height="12px" viewBox="729 534  12 12" xmlns="http://www.w3.org/2000/svg">
  <path d="M 735 534  C 738.36 534  741 536.64  741 540  C 741 543.36  738.36 546  735 546  C 731.64 546  729 543.36  729 540  C 729 536.64  731.64 534  735 534  Z " fill-rule="nonzero" fill="#f0f0f0" stroke="none" />
  <path d="M 735 534.5  C 738.08 534.5  740.5 536.92  740.5 540  C 740.5 543.08  738.08 545.5  735 545.5  C 731.92 545.5  729.5 543.08  729.5 540  C 729.5 536.92  731.92 534.5  735 534.5  Z " stroke-width="1" stroke="#797979" fill="none" />
  <path d="M 735 543  C 733.32 543  732 541.68  732 540  C 732 538.32  733.32 537  735 537  C 736.68 537  738 538.32  738 540  C 738 541.68  736.68 543  735 543  " fill-rule="nonzero" fill="#797979" stroke="none" />
</svg>