<?xml version="1.0" encoding="utf-8"?>
<svg version="1.1" xmlns:xlink="http://www.w3.org/1999/xlink" width="110px" height="110px" xmlns="http://www.w3.org/2000/svg">
  <g transform="matrix(1 0 0 1 -233 -1203 )">
    <path d="M 288 1203  C 318.8 1203  343 1227.2  343 1258  C 343 1288.8  318.8 1313  288 1313  C 257.2 1313  233 1288.8  233 1258  C 233 1227.2  257.2 1203  288 1203  Z " fill-rule="nonzero" fill="#ffffff" stroke="none" />
    <path d="M 288 1203.5  C 318.52 1203.5  342.5 1227.48  342.5 1258  C 342.5 1288.52  318.52 1312.5  288 1312.5  C 257.48 1312.5  233.5 1288.52  233.5 1258  C 233.5 1227.48  257.48 1203.5  288 1203.5  Z " stroke-width="1" stroke="#797979" fill="none" />
  </g>
</svg>